<?xml version="1.0" encoding="iso-8859-1"?>
<!-- Generator: Adobe Illustrator 19.0.0, SVG Export Plug-In . SVG Version: 6.00 Build 0)  -->
<svg version="1.1" id="Layer_1" xmlns="http://www.w3.org/2000/svg" xmlns:xlink="http://www.w3.org/1999/xlink" x="0px" y="0px"
	 viewBox="0 0 512 512" style="enable-background:new 0 0 512 512;" xml:space="preserve">
<path style="fill:#e34e61;" d="M256,0c141.384,0,256,114.616,256,256S397.384,512,256,512S0,397.384,0,256S114.616,0,256,0z"/>
<path style="fill:#324D5B;" d="M399.36,81.92h-87.04c-8.484,0-15.36,6.876-15.36,15.36v25.6c0,28.278-22.927,51.2-51.2,51.2h-81.92
	v5.12c0,5.652-4.588,10.24-10.24,10.24h-20.48c-5.652,0-10.24-4.588-10.24-10.24v-5.12h-10.24c-8.484,0-15.36,6.881-15.36,15.36
	v267.341c8.202,6.492,16.768,12.539,25.738,18.007c0.676-4.997,4.915-8.868,10.102-8.868h15.36c5.652,0,10.24,4.588,10.24,10.24
	v10.24c0,2.12-0.645,4.091-1.751,5.724C187.433,504.919,220.892,512,256,512s68.567-7.081,99.031-19.876
	c-1.106-1.633-1.751-3.604-1.751-5.724v-10.24c0-5.652,4.588-10.24,10.24-10.24h15.36c5.187,0,9.426,3.871,10.102,8.863
	c8.97-5.463,17.541-11.515,25.738-18.007V97.28C414.72,88.796,407.844,81.92,399.36,81.92L399.36,81.92z M158.72,435.2
	c0,5.652-4.588,10.24-10.24,10.24h-15.36c-5.652,0-10.24-4.588-10.24-10.24v-10.24c0-5.652,4.588-10.24,10.24-10.24h15.36
	c5.652,0,10.24,4.588,10.24,10.24V435.2z M158.72,384c0,5.652-4.588,10.24-10.24,10.24h-15.36c-5.652,0-10.24-4.588-10.24-10.24
	v-10.24c0-5.652,4.588-10.24,10.24-10.24h15.36c5.652,0,10.24,4.588,10.24,10.24V384z M158.72,332.8
	c0,5.652-4.588,10.24-10.24,10.24h-15.36c-5.652,0-10.24-4.588-10.24-10.24v-10.24c0-5.652,4.588-10.24,10.24-10.24h15.36
	c5.652,0,10.24,4.587,10.24,10.24V332.8z M158.72,281.6c0,5.652-4.588,10.24-10.24,10.24h-15.36c-5.652,0-10.24-4.588-10.24-10.24
	v-10.24c0-5.652,4.588-10.24,10.24-10.24h15.36c5.652,0,10.24,4.588,10.24,10.24V281.6z M158.72,230.4
	c0,5.652-4.588,10.24-10.24,10.24h-15.36c-5.652,0-10.24-4.588-10.24-10.24v-10.24c0-5.652,4.588-10.24,10.24-10.24h15.36
	c5.652,0,10.24,4.588,10.24,10.24V230.4z M389.12,435.2c0,5.652-4.588,10.24-10.24,10.24h-15.36c-5.652,0-10.24-4.588-10.24-10.24
	v-10.24c0-5.652,4.588-10.24,10.24-10.24h15.36c5.652,0,10.24,4.588,10.24,10.24V435.2z M389.12,384
	c0,5.652-4.588,10.24-10.24,10.24h-15.36c-5.652,0-10.24-4.588-10.24-10.24v-10.24c0-5.652,4.588-10.24,10.24-10.24h15.36
	c5.652,0,10.24,4.588,10.24,10.24V384z M389.12,332.8c0,5.652-4.588,10.24-10.24,10.24h-15.36c-5.652,0-10.24-4.588-10.24-10.24
	v-10.24c0-5.652,4.588-10.24,10.24-10.24h15.36c5.652,0,10.24,4.587,10.24,10.24V332.8z M389.12,281.6
	c0,5.652-4.588,10.24-10.24,10.24h-15.36c-5.652,0-10.24-4.588-10.24-10.24v-10.24c0-5.652,4.588-10.24,10.24-10.24h15.36
	c5.652,0,10.24,4.588,10.24,10.24V281.6z M389.12,230.4c0,5.652-4.588,10.24-10.24,10.24h-15.36c-5.652,0-10.24-4.588-10.24-10.24
	v-10.24c0-5.652,4.588-10.24,10.24-10.24h15.36c5.652,0,10.24,4.588,10.24,10.24V230.4z M389.12,179.2
	c0,5.652-4.588,10.24-10.24,10.24h-15.36c-5.652,0-10.24-4.588-10.24-10.24v-10.24c0-5.652,4.588-10.24,10.24-10.24h15.36
	c5.652,0,10.24,4.588,10.24,10.24V179.2z M389.12,128c0,5.652-4.588,10.24-10.24,10.24h-15.36c-5.652,0-10.24-4.588-10.24-10.24
	v-10.24c0-5.652,4.588-10.24,10.24-10.24h15.36c5.652,0,10.24,4.588,10.24,10.24V128z"/>
<g>
	<path style="fill:#516873;" d="M256,512c24.888,0,48.927-3.62,71.68-10.245V450.56c0-5.652-4.588-10.24-10.24-10.24H194.56
		c-5.652,0-10.24,4.588-10.24,10.24v51.195C207.068,508.38,231.112,512,256,512z M194.56,419.84h122.88
		c5.652,0,10.24-4.588,10.24-10.24v-76.8c0-5.652-4.588-10.24-10.24-10.24H194.56c-5.652,0-10.24,4.588-10.24,10.24v76.8
		C184.32,415.252,188.908,419.84,194.56,419.84z M317.44,204.8H194.56c-5.652,0-10.24,4.588-10.24,10.24v76.8
		c0,5.652,4.588,10.24,10.24,10.24h122.88c5.652,0,10.24-4.588,10.24-10.24v-76.8C327.68,209.388,323.092,204.8,317.44,204.8z"/>
</g>
<g>
</g>
<g>
</g>
<g>
</g>
<g>
</g>
<g>
</g>
<g>
</g>
<g>
</g>
<g>
</g>
<g>
</g>
<g>
</g>
<g>
</g>
<g>
</g>
<g>
</g>
<g>
</g>
<g>
</g>
</svg>
